<svg width="23" height="23" viewBox="0 0 23 23" fill="none" xmlns="http://www.w3.org/2000/svg">
<path fill-rule="evenodd" clip-rule="evenodd" d="M15.0135 8.19231C15.0135 9.25368 14.5919 10.2716 13.8414 11.0221C13.0909 11.7726 12.073 12.1942 11.0117 12.1942C9.95028 12.1942 8.93239 11.7726 8.18189 11.0221C7.43139 10.2716 7.00977 9.25368 7.00977 8.19231C7.00977 7.13095 7.43139 6.11305 8.18189 5.36255C8.93239 4.61206 9.95028 4.19043 11.0117 4.19043C12.073 4.19043 13.0909 4.61206 13.8414 5.36255C14.5919 6.11305 15.0135 7.13095 15.0135 8.19231V8.19231ZM13.0126 8.19231C13.0126 8.723 12.8018 9.23194 12.4265 9.60719C12.0513 9.98244 11.5423 10.1933 11.0117 10.1933C10.481 10.1933 9.97202 9.98244 9.59677 9.60719C9.22152 9.23194 9.01071 8.723 9.01071 8.19231C9.01071 7.66163 9.22152 7.15268 9.59677 6.77743C9.97202 6.40218 10.481 6.19137 11.0117 6.19137C11.5423 6.19137 12.0513 6.40218 12.4265 6.77743C12.8018 7.15268 13.0126 7.66163 13.0126 8.19231V8.19231Z" fill="#2E2A72"/>
<path fill-rule="evenodd" clip-rule="evenodd" d="M11.011 0.188477C4.93318 0.188477 0.00585938 5.1158 0.00585938 11.1937C0.00585938 17.2715 4.93318 22.1988 11.011 22.1988C17.0889 22.1988 22.0162 17.2715 22.0162 11.1937C22.0162 5.1158 17.0889 0.188477 11.011 0.188477ZM2.0068 11.1937C2.0068 13.2846 2.72014 15.2095 3.9157 16.7383C4.75533 15.6356 5.83851 14.7421 7.08062 14.1274C8.32274 13.5126 9.69016 13.1934 11.0761 13.1946C12.444 13.1933 13.7943 13.5043 15.0239 14.1038C16.2535 14.7033 17.33 15.5756 18.1714 16.6542C19.0383 15.5173 19.6219 14.1903 19.8741 12.783C20.1263 11.3757 20.0397 9.9286 19.6216 8.5614C19.2035 7.19421 18.4658 5.94623 17.4696 4.92074C16.4734 3.89525 15.2473 3.12172 13.8928 2.66415C12.5383 2.20658 11.0943 2.07814 9.68027 2.28944C8.26627 2.50074 6.92291 3.04571 5.76134 3.87927C4.59977 4.71282 3.65339 5.81099 3.0005 7.08292C2.34761 8.35484 2.00698 9.76395 2.0068 11.1937V11.1937ZM11.011 20.1979C8.94402 20.201 6.93939 19.4899 5.33637 18.1849C5.9816 17.2612 6.84041 16.5071 7.83974 15.9866C8.83907 15.4661 9.94933 15.1947 11.0761 15.1955C12.1888 15.1947 13.2856 15.4592 14.2755 15.9673C15.2654 16.4754 16.1198 17.2123 16.7678 18.1169C15.1523 19.4643 13.1146 20.2008 11.011 20.1979V20.1979Z" fill="#2E2A72"/>
</svg>
